<svg width="28" height="27" viewBox="0 0 28 27" fill="none" xmlns="http://www.w3.org/2000/svg">
    <path d="M26.8454 24.6625C26.6175 24.6625 26.3868 24.6625 26.159 24.6625C25.536 24.6625 24.9131 24.6625 24.2902 24.6625C23.3702 24.6625 22.4473 24.6625 21.5273 24.6625C20.4026 24.6625 19.2778 24.6625 18.1559 24.6625C16.9245 24.6625 15.693 24.6625 14.4616 24.6625C13.2186 24.6625 11.9756 24.6625 10.7326 24.6625C9.57321 24.6625 8.41385 24.6625 7.25449 24.6625C6.27394 24.6625 5.29339 24.6625 4.31572 24.6625C3.60914 24.6625 2.90257 24.6625 2.19599 24.6625C1.86433 24.6625 1.53268 24.6567 1.19813 24.6625C1.18371 24.6625 1.16929 24.6625 1.15487 24.6625C1.53844 25.0509 1.9249 25.4422 2.30847 25.8306C2.30847 25.6087 2.30847 25.3896 2.30847 25.1677C2.30847 24.5691 2.30847 23.9733 2.30847 23.3747C2.30847 22.4928 2.30847 21.6079 2.30847 20.726C2.30847 19.6426 2.30847 18.5621 2.30847 17.4787C2.30847 16.2989 2.30847 15.1191 2.30847 13.9365C2.30847 12.745 2.30847 11.5535 2.30847 10.3621C2.30847 9.24654 2.30847 8.13101 2.30847 7.01547C2.30847 6.07807 2.30847 5.13776 2.30847 4.20036C2.30847 3.52578 2.30847 2.84828 2.30847 2.17371C2.30847 1.85248 2.31135 1.53125 2.30847 1.21003C2.30847 1.19543 2.30847 1.18374 2.30847 1.16914C2.30847 0.558813 1.77781 -0.0281564 1.15487 0.00104603C0.52905 0.0302485 0.00128177 0.515009 0.00128177 1.16914C0.00128177 1.39108 0.00128177 1.6101 0.00128177 1.83204C0.00128177 2.43069 0.00128177 3.02642 0.00128177 3.62507C0.00128177 4.50698 0.00128177 5.39182 0.00128177 6.27373C0.00128177 7.35714 0.00128177 8.43763 0.00128177 9.52104C0.00128177 10.7008 0.00128177 11.8806 0.00128177 13.0633C0.00128177 14.2548 0.00128177 15.4462 0.00128177 16.6377C0.00128177 17.7532 0.00128177 18.8687 0.00128177 19.9843C0.00128177 20.9217 0.00128177 21.862 0.00128177 22.7994C0.00128177 23.474 0.00128177 24.1515 0.00128177 24.826C0.00128177 25.1473 -0.00160221 25.4685 0.00128177 25.7897C0.00128177 25.8043 0.00128177 25.816 0.00128177 25.8306C0.00128177 26.4614 0.52905 26.9987 1.15487 26.9987C1.38271 26.9987 1.61343 26.9987 1.84126 26.9987C2.4642 26.9987 3.08714 26.9987 3.71008 26.9987C4.63007 26.9987 5.55294 26.9987 6.47293 26.9987C7.59769 26.9987 8.72244 26.9987 9.84431 26.9987C11.0758 26.9987 12.3072 26.9987 13.5387 26.9987C14.7817 26.9987 16.0247 26.9987 17.2677 26.9987C18.427 26.9987 19.5864 26.9987 20.7458 26.9987C21.7263 26.9987 22.7069 26.9987 23.6845 26.9987C24.3911 26.9987 25.0977 26.9987 25.8043 26.9987C26.1359 26.9987 26.4676 27.0016 26.8021 26.9987C26.8165 26.9987 26.831 26.9987 26.8454 26.9987C27.4481 26.9987 28.0278 26.4614 27.999 25.8306C27.9701 25.1969 27.4914 24.6625 26.8454 24.6625Z" fill="white"/>
    <path d="M5.89607 18.2729C6.44403 17.4844 6.99487 16.696 7.54282 15.9075C8.41955 14.6489 9.2934 13.3902 10.1701 12.1345C10.372 11.8454 10.5739 11.5563 10.7729 11.2672C10.1701 11.3461 9.56449 11.4249 8.96174 11.5038C9.51258 11.9652 10.0634 12.4266 10.6143 12.8909C11.4881 13.6239 12.362 14.3568 13.2358 15.0869C13.4377 15.2563 13.6367 15.4227 13.8386 15.5921C14.1298 15.8374 14.424 15.9659 14.8076 15.9133C14.9604 15.9075 15.1046 15.8608 15.2373 15.7761C15.4103 15.671 15.5488 15.5337 15.6526 15.3556C15.8891 15.0373 16.1284 14.719 16.3649 14.4006C16.9388 13.6326 17.5099 12.8646 18.0838 12.0937C18.773 11.1679 19.4652 10.2422 20.1545 9.31358C20.7543 8.51052 21.3542 7.70453 21.9541 6.90146C22.2454 6.51307 22.5424 6.1276 22.825 5.73336C22.8279 5.72752 22.8337 5.72168 22.8366 5.71584C22.2338 5.79469 21.6282 5.87354 21.0254 5.95238C21.5099 6.38166 21.9944 6.80801 22.4818 7.23729C23.2519 7.91771 24.0219 8.5952 24.7919 9.27562C24.9707 9.43331 25.1495 9.59101 25.3283 9.7487C25.5619 9.95312 25.8273 10.0904 26.1445 10.0904C26.4271 10.0904 26.7646 9.96188 26.9607 9.7487C27.1625 9.52676 27.3125 9.23474 27.2981 8.92227C27.2837 8.62441 27.1885 8.30026 26.9607 8.09584C26.4762 7.66657 25.9916 7.24021 25.5043 6.81093C24.7342 6.13052 23.9642 5.45302 23.1942 4.7726C23.0154 4.61491 22.8366 4.45722 22.6578 4.29953C22.3723 4.04838 22.0665 3.92573 21.6887 3.9783C21.5359 3.98414 21.3917 4.03086 21.259 4.11555C21.086 4.22068 20.9476 4.35793 20.8437 4.53606C20.6073 4.85437 20.3679 5.17268 20.1314 5.49098C19.5575 6.25901 18.9865 7.02703 18.4125 7.79798C17.7233 8.72369 17.0311 9.64941 16.3418 10.578C15.742 11.3811 15.1421 12.1871 14.5422 12.9902C14.251 13.3786 13.9539 13.764 13.6713 14.1583C13.6684 14.1641 13.6626 14.1699 13.6597 14.1758C14.2625 14.0969 14.8681 14.0181 15.4709 13.9393C14.92 13.4779 14.3692 13.0165 13.8184 12.5521C12.9445 11.8192 12.0707 11.0862 11.1968 10.3561C10.9949 10.1867 10.796 10.0203 10.5941 9.85091C10.3028 9.60561 10.0086 9.47712 9.62506 9.52968C9.25014 9.58225 8.99635 9.7779 8.78293 10.0874C8.23498 10.8759 7.68414 11.6644 7.13618 12.4528C6.25945 13.7115 5.3856 14.9701 4.50887 16.2258C4.307 16.5149 4.10512 16.804 3.90612 17.0931C3.74174 17.3297 3.71578 17.7239 3.79076 17.9925C3.86575 18.2641 4.07051 18.5562 4.32142 18.6905C4.58963 18.8336 4.91263 18.9066 5.20968 18.8073C5.50385 18.7109 5.71438 18.5328 5.89607 18.2729Z" fill="white"/>
</svg>
