<svg width="28" height="28" viewBox="0 0 28 28" fill="none" xmlns="http://www.w3.org/2000/svg">
    <path d="M11.6366 0.68457H0.6875V15.8731H11.6366V0.68457Z" fill="white"/>
    <path d="M11.6368 15.1919C10.399 15.1919 9.1579 15.1919 7.92018 15.1919C5.95817 15.1919 3.99957 15.1919 2.03757 15.1919C1.58872 15.1919 1.13647 15.1919 0.687627 15.1919C0.91545 15.4201 1.13987 15.6449 1.3677 15.873C1.3677 15.3656 1.3677 14.8616 1.3677 14.3542C1.3677 13.1486 1.3677 11.9465 1.3677 10.7409C1.3677 9.27317 1.3677 7.8054 1.3677 6.33763C1.3677 5.0776 1.3677 3.81756 1.3677 2.56093C1.3677 1.94454 1.3949 1.32474 1.3677 0.708343C1.3677 0.698127 1.3677 0.691316 1.3677 0.681099C1.13987 0.909268 0.91545 1.13403 0.687627 1.3622C1.92535 1.3622 3.16648 1.3622 4.40421 1.3622C6.36621 1.3622 8.32482 1.3622 10.2868 1.3622C10.7357 1.3622 11.1879 1.3622 11.6368 1.3622C11.4089 1.13403 11.1845 0.909268 10.9567 0.681099C10.9567 1.18852 10.9567 1.69253 10.9567 2.19995C10.9567 3.4055 10.9567 4.60764 10.9567 5.81318C10.9567 7.28095 10.9567 8.74872 10.9567 10.2165C10.9567 11.4765 10.9567 12.7366 10.9567 13.9932C10.9567 14.6096 10.9397 15.2294 10.9567 15.8458C10.9567 15.856 10.9567 15.8628 10.9567 15.873C10.9567 16.2306 11.2695 16.5711 11.6368 16.5541C12.004 16.5371 12.3168 16.2544 12.3168 15.873C12.3168 15.3656 12.3168 14.8616 12.3168 14.3542C12.3168 13.1486 12.3168 11.9465 12.3168 10.7409C12.3168 9.27317 12.3168 7.8054 12.3168 6.33763C12.3168 5.0776 12.3168 3.81756 12.3168 2.56093C12.3168 1.94454 12.3338 1.32474 12.3168 0.708343C12.3168 0.698127 12.3168 0.691316 12.3168 0.681099C12.3168 0.313306 12.004 0 11.6368 0C10.399 0 9.1579 0 7.92018 0C5.95817 0 3.99957 0 2.03757 0C1.58872 0 1.13647 0 0.687627 0C0.320389 0 0.00755634 0.313306 0.00755634 0.681099C0.00755634 1.18852 0.00755634 1.69253 0.00755634 2.19995C0.00755634 3.4055 0.00755634 4.60764 0.00755634 5.81318C0.00755634 7.28095 0.00755634 8.74872 0.00755634 10.2165C0.00755634 11.4765 0.00755634 12.7366 0.00755634 13.9932C0.00755634 14.6096 -0.00944542 15.2294 0.00755634 15.8458C0.00755634 15.856 0.00755634 15.8628 0.00755634 15.873C0.00755634 16.2408 0.320389 16.5541 0.687627 16.5541C1.92535 16.5541 3.16648 16.5541 4.40421 16.5541C6.36621 16.5541 8.32482 16.5541 10.2868 16.5541C10.7357 16.5541 11.1879 16.5541 11.6368 16.5541C11.9938 16.5541 12.3338 16.2408 12.3168 15.873C12.2998 15.5052 12.0176 15.1919 11.6368 15.1919Z" fill="white"/>
    <path d="M11.6366 20.6406H0.6875V27.3154H11.6366V20.6406Z" fill="white"/>
    <path d="M11.6368 26.6342C10.399 26.6342 9.15791 26.6342 7.92019 26.6342C5.95818 26.6342 3.99958 26.6342 2.03758 26.6342C1.58873 26.6342 1.13649 26.6342 0.687639 26.6342C0.915462 26.8624 1.13989 27.0872 1.36771 27.3153C1.36771 26.5661 1.36771 25.8169 1.36771 25.0677C1.36771 23.8656 1.36771 22.6668 1.36771 21.4647C1.36771 21.1889 1.36771 20.9164 1.36771 20.6406C1.13989 20.8687 0.915462 21.0935 0.687639 21.3217C1.92537 21.3217 3.16649 21.3217 4.40422 21.3217C6.36623 21.3217 8.32483 21.3217 10.2868 21.3217C10.7357 21.3217 11.1879 21.3217 11.6368 21.3217C11.4089 21.0935 11.1845 20.8687 10.9567 20.6406C10.9567 21.3898 10.9567 22.139 10.9567 22.8882C10.9567 24.0903 10.9567 25.2891 10.9567 26.4912C10.9567 26.7671 10.9567 27.0395 10.9567 27.3153C10.9567 27.6729 11.2695 28.0135 11.6368 27.9964C12.004 27.9794 12.3168 27.6968 12.3168 27.3153C12.3168 26.5661 12.3168 25.8169 12.3168 25.0677C12.3168 23.8656 12.3168 22.6668 12.3168 21.4647C12.3168 21.1889 12.3168 20.9164 12.3168 20.6406C12.3168 20.2728 12.004 19.9595 11.6368 19.9595C10.399 19.9595 9.15791 19.9595 7.92019 19.9595C5.95818 19.9595 3.99958 19.9595 2.03758 19.9595C1.58873 19.9595 1.13649 19.9595 0.687639 19.9595C0.320401 19.9595 0.00756836 20.2728 0.00756836 20.6406C0.00756836 21.3898 0.00756836 22.139 0.00756836 22.8882C0.00756836 24.0903 0.00756836 25.2891 0.00756836 26.4912C0.00756836 26.7671 0.00756836 27.0395 0.00756836 27.3153C0.00756836 27.6831 0.320401 27.9964 0.687639 27.9964C1.92537 27.9964 3.16649 27.9964 4.40422 27.9964C6.36623 27.9964 8.32483 27.9964 10.2868 27.9964C10.7357 27.9964 11.1879 27.9964 11.6368 27.9964C11.9938 27.9964 12.3338 27.6831 12.3168 27.3153C12.2998 26.9476 12.0176 26.6342 11.6368 26.6342Z" fill="white"/>
    <path d="M27.3124 12.127H16.3633V27.3155H27.3124V12.127Z" fill="white"/>
    <path d="M27.3123 11.4459C26.0746 11.4459 24.8334 11.4459 23.5957 11.4459C21.6337 11.4459 19.6751 11.4459 17.7131 11.4459C17.2643 11.4459 16.812 11.4459 16.3632 11.4459C15.9959 11.4459 15.6831 11.7592 15.6831 12.127C15.6831 12.6344 15.6831 13.1385 15.6831 13.6459C15.6831 14.8514 15.6831 16.0536 15.6831 17.2591C15.6831 18.7269 15.6831 20.1946 15.6831 21.6624C15.6831 22.9225 15.6831 24.1825 15.6831 25.4391C15.6831 26.0555 15.6661 26.6753 15.6831 27.2917C15.6831 27.3019 15.6831 27.3087 15.6831 27.3189C15.6831 27.6867 15.9959 28 16.3632 28C17.6009 28 18.842 28 20.0797 28C22.0418 28 24.0004 28 25.9624 28C26.4112 28 26.8635 28 27.3123 28C27.6795 28 27.9924 27.6867 27.9924 27.3189C27.9924 26.8115 27.9924 26.3075 27.9924 25.8001C27.9924 24.5946 27.9924 23.3924 27.9924 22.1869C27.9924 20.7191 27.9924 19.2513 27.9924 17.7836C27.9924 16.5235 27.9924 15.2635 27.9924 14.0069C27.9924 13.3905 28.0094 12.7707 27.9924 12.1543C27.9924 12.1441 27.9924 12.1372 27.9924 12.127C27.9924 11.7694 27.6795 11.4289 27.3123 11.4459C26.9451 11.463 26.6322 11.7456 26.6322 12.127C26.6322 12.6344 26.6322 13.1385 26.6322 13.6459C26.6322 14.8514 26.6322 16.0536 26.6322 17.2591C26.6322 18.7269 26.6322 20.1946 26.6322 21.6624C26.6322 22.9225 26.6322 24.1825 26.6322 25.4391C26.6322 26.0555 26.605 26.6753 26.6322 27.2917C26.6322 27.3019 26.6322 27.3087 26.6322 27.3189C26.8601 27.0908 27.0845 26.866 27.3123 26.6378C26.0746 26.6378 24.8334 26.6378 23.5957 26.6378C21.6337 26.6378 19.6751 26.6378 17.7131 26.6378C17.2643 26.6378 16.812 26.6378 16.3632 26.6378C16.591 26.866 16.8154 27.0908 17.0432 27.3189C17.0432 26.8115 17.0432 26.3075 17.0432 25.8001C17.0432 24.5946 17.0432 23.3924 17.0432 22.1869C17.0432 20.7191 17.0432 19.2513 17.0432 17.7836C17.0432 16.5235 17.0432 15.2635 17.0432 14.0069C17.0432 13.3905 17.0704 12.7707 17.0432 12.1543C17.0432 12.1441 17.0432 12.1372 17.0432 12.127C16.8154 12.3552 16.591 12.58 16.3632 12.8081C17.6009 12.8081 18.842 12.8081 20.0797 12.8081C22.0418 12.8081 24.0004 12.8081 25.9624 12.8081C26.4112 12.8081 26.8635 12.8081 27.3123 12.8081C27.6693 12.8081 28.0094 12.4948 27.9924 12.127C27.9754 11.7592 27.6931 11.4459 27.3123 11.4459Z" fill="white"/>
    <path d="M27.3124 0.68457H16.3633V7.35934H27.3124V0.68457Z" fill="white"/>
    <path d="M27.3123 0.00354249C26.0746 0.00354249 24.8335 0.00354249 23.5957 0.00354249C21.6337 0.00354249 19.6751 0.00354249 17.7131 0.00354249C17.2643 0.00354249 16.812 0.00354249 16.3632 0.00354249C15.9959 0.00354249 15.6831 0.316848 15.6831 0.684642C15.6831 1.43385 15.6831 2.18306 15.6831 2.93227C15.6831 4.13441 15.6831 5.33315 15.6831 6.53529C15.6831 6.81113 15.6831 7.08357 15.6831 7.35942C15.6831 7.72721 15.9959 8.04052 16.3632 8.04052C17.6009 8.04052 18.842 8.04052 20.0798 8.04052C22.0418 8.04052 24.0004 8.04052 25.9624 8.04052C26.4112 8.04052 26.8635 8.04052 27.3123 8.04052C27.6795 8.04052 27.9924 7.72721 27.9924 7.35942C27.9924 6.61021 27.9924 5.861 27.9924 5.11179C27.9924 3.90965 27.9924 2.71091 27.9924 1.50877C27.9924 1.23293 27.9924 0.960487 27.9924 0.684642C27.9924 0.327065 27.6795 -0.013485 27.3123 0.00354249C26.9451 0.02057 26.6322 0.303226 26.6322 0.684642C26.6322 1.43385 26.6322 2.18306 26.6322 2.93227C26.6322 4.13441 26.6322 5.33315 26.6322 6.53529C26.6322 6.81113 26.6322 7.08357 26.6322 7.35942C26.8601 7.13125 27.0845 6.90649 27.3123 6.67832C26.0746 6.67832 24.8335 6.67832 23.5957 6.67832C21.6337 6.67832 19.6751 6.67832 17.7131 6.67832C17.2643 6.67832 16.812 6.67832 16.3632 6.67832C16.591 6.90649 16.8154 7.13125 17.0432 7.35942C17.0432 6.61021 17.0432 5.861 17.0432 5.11179C17.0432 3.90965 17.0432 2.71091 17.0432 1.50877C17.0432 1.23293 17.0432 0.960487 17.0432 0.684642C16.8154 0.91281 16.591 1.13757 16.3632 1.36574C17.6009 1.36574 18.842 1.36574 20.0798 1.36574C22.0418 1.36574 24.0004 1.36574 25.9624 1.36574C26.4112 1.36574 26.8635 1.36574 27.3123 1.36574C27.6693 1.36574 28.0094 1.05244 27.9924 0.684642C27.9754 0.316848 27.6931 0.00354249 27.3123 0.00354249Z" fill="white"/>
</svg>
