<svg width="28" height="28" viewBox="0 0 28 28" fill="none" xmlns="http://www.w3.org/2000/svg">
    <path d="M27.6277 25.7281L21.7601 19.8567C23.4408 17.7619 24.4433 15.1064 24.4433 12.215C24.4433 5.48788 18.959 0 12.2364 0C5.51374 0 0 5.48788 0 12.2445C0 19.0011 5.48425 24.4594 12.2364 24.4594C15.1259 24.4594 17.7796 23.4563 19.8731 21.7745L25.7111 27.6164C25.9765 27.882 26.3303 28 26.6547 28C26.979 28 27.3328 27.882 27.5982 27.6164C28.1289 27.1149 28.1289 26.2592 27.6277 25.7281ZM2.71264 12.2445C2.71264 6.99262 6.988 2.71444 12.2364 2.71444C17.4847 2.71444 21.7601 6.99262 21.7601 12.2445C21.7601 17.4963 17.4847 21.7745 12.2364 21.7745C6.988 21.7745 2.71264 17.4963 2.71264 12.2445Z" fill="white"/>
</svg>
