<svg width="192" height="32" viewBox="0 0 192 32" fill="none" xmlns="http://www.w3.org/2000/svg">
    <path d="M7.50808 0C7.93559 0.797392 8.44325 1.78084 9.03107 2.95035C9.59217 4.11986 10.2067 5.39569 10.8213 6.75125C11.4358 8.10682 12.0503 9.51555 12.6649 10.9509C13.2794 12.3862 13.8405 13.7151 14.3749 14.991C14.9093 13.7417 15.4971 12.3862 16.0849 10.9509C16.6995 9.51555 17.314 8.1334 17.9285 6.75125C18.5431 5.39569 19.1576 4.11986 19.7187 2.95035C20.2798 1.78084 20.7875 0.797392 21.2417 0H26.4252C26.6657 1.67452 26.9062 3.53511 27.0932 5.60832C27.307 7.68154 27.494 9.8345 27.6276 12.0672C27.7879 14.2999 27.9215 16.5592 28.0551 18.7919C28.1887 21.0512 28.2956 23.151 28.4024 25.1444H22.8716C22.7914 22.6991 22.7113 20.0411 22.5777 17.1705C22.4441 14.2999 22.2838 11.4027 22.0433 8.45236C21.6158 9.46239 21.1081 10.6053 20.5737 11.828C20.0394 13.0507 19.505 14.2999 18.9706 15.5226C18.4362 16.7452 17.9285 17.9413 17.4476 19.0577C16.9667 20.174 16.5391 21.1309 16.1918 21.9549H12.2106C11.8633 21.1575 11.4625 20.2006 10.9548 19.0577C10.4472 17.9147 9.96624 16.7452 9.43185 15.5226C8.89747 14.2999 8.38981 13.0507 7.82871 11.828C7.29432 10.6053 6.81338 9.46239 6.35915 8.45236C6.11868 11.3761 5.93165 14.2733 5.82477 17.1705C5.69117 20.0411 5.61101 22.6991 5.53086 25.1444H0C0.106877 23.151 0.21375 21.0512 0.347346 18.7919C0.480941 16.5326 0.614539 14.2999 0.774853 12.0672C0.935168 9.8345 1.1222 7.68154 1.30924 5.60832C1.52299 3.53511 1.73674 1.67452 1.97721 0H7.50808Z" fill="white"/>
    <path d="M51.087 15.5755C51.087 17.064 50.8732 18.4461 50.419 19.6954C49.9915 20.9446 49.3503 22.0078 48.522 22.885C47.6937 23.7621 46.7051 24.4532 45.5561 24.9316C44.4072 25.41 43.098 25.6492 41.6819 25.6492C40.2657 25.6492 38.9832 25.41 37.8343 24.9316C36.6854 24.4532 35.6968 23.7621 34.8685 22.885C34.0402 22.0078 33.3989 20.9446 32.9447 19.6954C32.4905 18.4461 32.25 17.0906 32.25 15.5755C32.25 14.0871 32.4905 12.7049 32.9714 11.4822C33.4524 10.2596 34.0936 9.19639 34.9486 8.31926C35.7769 7.44213 36.7923 6.77763 37.9412 6.2992C39.0901 5.82076 40.3459 5.58154 41.7086 5.58154C43.098 5.58154 44.3538 5.82076 45.5294 6.2992C46.6783 6.77763 47.6669 7.46871 48.4952 8.31926C49.3235 9.19639 49.9648 10.233 50.419 11.4822C50.8465 12.7049 51.087 14.0605 51.087 15.5755ZM45.5561 15.5755C45.5561 13.901 45.2088 12.5986 44.5408 11.6417C43.8728 10.6849 42.9109 10.2064 41.6819 10.2064C40.4528 10.2064 39.4909 10.6849 38.7962 11.6417C38.1282 12.5986 37.7809 13.901 37.7809 15.5755C37.7809 17.25 38.1282 18.579 38.7962 19.5359C39.4642 20.5194 40.4261 20.9978 41.6819 20.9978C42.9109 20.9978 43.8728 20.5194 44.5408 19.5359C45.2088 18.5525 45.5561 17.25 45.5561 15.5755Z" fill="white"/>
    <path d="M55.2817 6.72453C56.2169 6.45874 57.3925 6.21952 58.8621 5.9803C60.3317 5.74108 61.8546 5.63477 63.4578 5.63477C65.0877 5.63477 66.4503 5.8474 67.5191 6.27268C68.5879 6.69795 69.4696 7.28271 70.0841 8.0801C70.7254 8.85091 71.1529 9.7812 71.4468 10.8444C71.714 11.9076 71.8476 13.1037 71.8476 14.4061V25.1709H66.4236V15.044C66.4236 13.2897 66.1831 12.0671 65.7289 11.3494C65.2747 10.6318 64.393 10.2596 63.1372 10.2596C62.7364 10.2596 62.3356 10.2862 61.9081 10.3128C61.4806 10.3394 61.0798 10.3925 60.7324 10.4457V25.1709H55.3085V6.72453H55.2817Z" fill="white"/>
    <path d="M75.8555 15.7616C75.8555 14.0605 76.1227 12.5986 76.6303 11.3228C77.1647 10.0469 77.8327 8.98375 78.6877 8.15978C79.5427 7.30923 80.5046 6.67131 81.6268 6.24604C82.7223 5.82076 83.8712 5.58154 85.0469 5.58154C87.7722 5.58154 89.9097 6.40552 91.5129 8.08004C93.0893 9.72798 93.8909 12.1733 93.8909 15.3895C93.8909 15.7084 93.8909 16.054 93.8642 16.4261C93.8375 16.7982 93.8107 17.1437 93.784 17.4361H81.4665C81.6001 18.5525 82.1078 19.4296 83.0429 20.0941C83.9781 20.7586 85.2072 21.0775 86.7569 21.0775C87.7455 21.0775 88.7341 20.9978 89.696 20.8117C90.6579 20.6257 91.4327 20.413 92.0473 20.1472L92.7687 24.5329C92.4748 24.6658 92.1007 24.8253 91.593 24.9582C91.1121 25.0911 90.5777 25.224 89.9632 25.3303C89.3754 25.4366 88.7341 25.5429 88.0394 25.5961C87.3714 25.6758 86.6767 25.7024 86.0087 25.7024C84.272 25.7024 82.7757 25.4366 81.4932 24.9316C80.2107 24.4266 79.1686 23.7355 78.3136 22.8584C77.4853 21.9812 76.8441 20.9181 76.4433 19.722C76.0425 18.4727 75.8555 17.1437 75.8555 15.7616ZM88.6272 13.6884C88.6005 13.2365 88.5203 12.7847 88.3868 12.3594C88.2532 11.9341 88.0394 11.5354 87.7722 11.1899C87.505 10.8443 87.1309 10.5785 86.7034 10.3659C86.2759 10.1533 85.7416 10.0469 85.127 10.0469C84.5125 10.0469 84.0048 10.1533 83.5506 10.3659C83.1231 10.5785 82.749 10.8443 82.4551 11.1899C82.1612 11.5354 81.9474 11.9341 81.7871 12.3594C81.6268 12.8112 81.5199 13.2631 81.4398 13.7149H88.6272V13.6884Z" fill="white"/>
    <path d="M115.133 6.06006C114.037 9.72806 112.889 13.1834 111.686 16.3996C110.484 19.6157 109.175 22.7256 107.785 25.7556C107.278 26.8454 106.77 27.7757 106.262 28.5199C105.755 29.2907 105.193 29.9021 104.579 30.4071C103.964 30.9121 103.27 31.2577 102.522 31.4969C101.747 31.7361 100.865 31.8424 99.8496 31.8424C98.9946 31.8424 98.2197 31.7627 97.4983 31.6032C96.7769 31.4437 96.1891 31.2577 95.7349 31.0716L96.67 26.7657C97.2311 26.9517 97.7388 27.0846 98.1663 27.1644C98.5938 27.2441 99.0748 27.2707 99.5557 27.2707C100.518 27.2707 101.266 27.0049 101.8 26.4999C102.334 25.9683 102.762 25.2506 103.136 24.3469C101.907 21.9282 100.651 19.217 99.4221 16.2135C98.193 13.21 97.0174 9.83438 95.9219 6.08664H101.64C101.88 7.01693 102.174 8.05354 102.495 9.14331C102.815 10.2331 103.163 11.3494 103.537 12.4924C103.911 13.6087 104.285 14.6985 104.659 15.7882C105.033 16.8514 105.407 17.8083 105.728 18.6854C106.048 17.8083 106.369 16.8514 106.716 15.7882C107.064 14.7251 107.384 13.6353 107.732 12.4924C108.052 11.376 108.373 10.2597 108.694 9.14331C108.988 8.05354 109.281 7.01693 109.522 6.08664H115.133V6.06006Z" fill="white"/>
    <path d="M137.123 0V4.83751H129.508V25.1444H123.817V4.83751H116.202V0H137.123Z" fill="white"/>
    <path d="M149.44 10.8447C148.959 10.7118 148.371 10.6055 147.73 10.4726C147.062 10.3397 146.367 10.2599 145.619 10.2599C145.272 10.2599 144.871 10.2865 144.39 10.3397C143.909 10.3928 143.562 10.4726 143.321 10.5523V25.1446H137.897V7.07035C138.859 6.72481 140.008 6.40585 141.344 6.11348C142.68 5.8211 144.15 5.66162 145.78 5.66162C146.074 5.66162 146.421 5.6882 146.848 5.71478C147.249 5.74136 147.677 5.79452 148.077 5.84768C148.478 5.90084 148.906 5.98058 149.307 6.06032C149.707 6.14006 150.081 6.24637 150.375 6.37927L149.44 10.8447Z" fill="white"/>
    <path d="M152.005 15.7616C152.005 14.0605 152.273 12.5986 152.78 11.3228C153.315 10.0469 153.983 8.98375 154.838 8.15978C155.693 7.30923 156.654 6.67131 157.777 6.24604C158.872 5.82076 160.021 5.58154 161.197 5.58154C163.922 5.58154 166.06 6.40552 167.663 8.08004C169.239 9.72798 170.041 12.1733 170.041 15.3895C170.041 15.7084 170.041 16.054 170.014 16.4261C169.987 16.7982 169.961 17.1437 169.934 17.4361H157.616C157.75 18.5525 158.258 19.4296 159.193 20.0941C160.128 20.7586 161.357 21.0775 162.907 21.0775C163.895 21.0775 164.884 20.9978 165.846 20.8117C166.808 20.6257 167.583 20.413 168.197 20.1472L168.919 24.5329C168.625 24.6658 168.251 24.8253 167.743 24.9582C167.262 25.0911 166.728 25.224 166.113 25.3303C165.525 25.4366 164.884 25.5429 164.189 25.5961C163.521 25.6758 162.827 25.7024 162.159 25.7024C160.422 25.7024 158.926 25.4366 157.643 24.9316C156.361 24.4266 155.319 23.7355 154.464 22.8584C153.635 21.9812 152.994 20.9181 152.593 19.722C152.192 18.4727 152.005 17.1437 152.005 15.7616ZM164.777 13.6884C164.75 13.2365 164.67 12.7847 164.537 12.3594C164.403 11.9341 164.189 11.5354 163.922 11.1899C163.655 10.8443 163.281 10.5785 162.853 10.3659C162.426 10.1533 161.891 10.0469 161.277 10.0469C160.662 10.0469 160.155 10.1533 159.7 10.3659C159.273 10.5785 158.899 10.8443 158.605 11.1899C158.311 11.5354 158.097 11.9341 157.937 12.3594C157.777 12.8112 157.67 13.2631 157.59 13.7149H164.777V13.6884Z" fill="white"/>
    <path d="M173.3 15.7616C173.3 14.0605 173.567 12.5986 174.075 11.3228C174.61 10.0469 175.278 8.98375 176.133 8.15978C176.988 7.30923 177.949 6.67131 179.072 6.24604C180.167 5.82076 181.316 5.58154 182.492 5.58154C185.217 5.58154 187.355 6.40552 188.958 8.08004C190.534 9.72798 191.336 12.1733 191.336 15.3895C191.336 15.7084 191.336 16.054 191.309 16.4261C191.282 16.7982 191.256 17.1437 191.229 17.4361H178.911C179.045 18.5525 179.553 19.4296 180.488 20.0941C181.423 20.7586 182.652 21.0775 184.202 21.0775C185.19 21.0775 186.179 20.9978 187.141 20.8117C188.103 20.6257 188.878 20.413 189.492 20.1472L190.214 24.5329C189.92 24.6658 189.546 24.8253 189.038 24.9582C188.557 25.0911 188.023 25.224 187.408 25.3303C186.82 25.4366 186.179 25.5429 185.484 25.5961C184.816 25.6758 184.122 25.7024 183.454 25.7024C181.717 25.7024 180.221 25.4366 178.938 24.9316C177.656 24.4266 176.613 23.7355 175.758 22.8584C174.93 21.9812 174.289 20.9181 173.888 19.722C173.514 18.4727 173.3 17.1437 173.3 15.7616ZM186.072 13.6884C186.045 13.2365 185.965 12.7847 185.832 12.3594C185.698 11.9341 185.484 11.5354 185.217 11.1899C184.95 10.8443 184.576 10.5785 184.148 10.3659C183.721 10.1533 183.186 10.0469 182.572 10.0469C181.957 10.0469 181.45 10.1533 180.995 10.3659C180.568 10.5785 180.194 10.8443 179.9 11.1899C179.606 11.5354 179.392 11.9341 179.232 12.3594C179.072 12.8112 178.965 13.2631 178.885 13.7149H186.072V13.6884Z" fill="white"/>
</svg>
