<svg width="28" height="28" viewBox="0 0 28 28" fill="none" xmlns="http://www.w3.org/2000/svg">
    <path d="M21.1963 4.22895C16.4475 0.722499 9.72126 1.11969 5.42039 5.42051C2.30914 8.53177 1.23961 12.9126 2.216 16.8992C2.33863 17.3998 2.03216 17.9051 1.53148 18.0277C1.03081 18.1504 0.525524 17.8439 0.402896 17.3432C-0.72225 12.7493 0.508873 7.69214 4.10045 4.10057C9.06386 -0.862842 16.8268 -1.32039 22.3064 2.72791V1.86669C22.3064 1.35122 22.7243 0.933347 23.2398 0.933347C23.7553 0.933347 24.1731 1.35122 24.1731 1.86669V4.76054C24.1731 5.20336 23.862 5.5852 23.4283 5.67466L20.4887 6.28087C19.9838 6.38498 19.4902 6.06008 19.3861 5.55524C19.282 5.05039 19.6069 4.55674 20.1117 4.45263L21.1963 4.22895Z" fill="white"/>
    <path d="M26.4686 9.97282C26.9692 9.85018 27.4745 10.1566 27.5971 10.6573C28.7223 15.2512 27.4911 20.3084 23.8996 23.9C18.9362 28.8634 11.1732 29.321 5.6936 25.2727V26.6463C5.6936 27.1617 5.27574 27.5796 4.76025 27.5796C4.24476 27.5796 3.8269 27.1617 3.8269 26.6463V23.24C3.8269 22.7245 4.24476 22.3067 4.76025 22.3067H8.1665C8.68199 22.3067 9.09985 22.7245 9.09985 23.24C9.09985 23.7555 8.68199 24.1734 8.1665 24.1734H7.38235C12.0864 27.2401 18.4507 26.709 22.5796 22.5801C25.6909 19.4688 26.7604 15.0879 25.784 11.1014C25.6614 10.6007 25.9679 10.0954 26.4686 9.97282Z" fill="white"/>
    <path fill-rule="evenodd" clip-rule="evenodd" d="M6.06665 14.0003C6.06665 9.61884 9.6186 6.06689 14.0001 6.06689C18.3816 6.06689 21.9336 9.61884 21.9336 14.0003C21.9336 18.3819 18.3816 21.9338 14.0001 21.9338C9.6186 21.9338 6.06665 18.3819 6.06665 14.0003Z" fill="white"/>
</svg>
