<svg width="28" height="28" viewBox="0 0 28 28" fill="none" xmlns="http://www.w3.org/2000/svg">
    <path d="M0.902909 12.4343H15.41H18.8234H27.5053C27.9506 12.4343 28.1732 11.8931 27.8393 11.5838L16.1149 0.14082C15.8181 -0.16845 15.2986 0.0635027 15.2986 0.527409L15.3729 7.44734H0.902909C0.420578 7.44734 0.0124512 7.87259 0.0124512 8.37516V11.5838C0.0124512 12.0477 0.420578 12.4343 0.902909 12.4343Z" fill="white"/>
    <path d="M27.9876 19.7019V16.4932C27.9876 15.9907 27.5795 15.5654 27.0971 15.5654H12.5901H9.17666H0.494699C0.04947 15.5654 -0.173145 16.1067 0.160777 16.4159L11.8851 27.8589C12.182 28.1682 12.7014 27.9363 12.7014 27.4724L12.6272 20.5524H27.0971C27.5795 20.6297 27.9876 20.2431 27.9876 19.7019Z" fill="white"/>
</svg>
